<svg width="1792" height="1792" xmlns="http://www.w3.org/2000/svg">

 <g>
  <title>background</title>
  <rect fill="none" id="canvas_background" height="402" width="582" y="-1" x="-1"/>
 </g>
 <g>
  <title fill="#303030">Layer 1</title>
  <path fill="#303030" id="svg_1" d="m704,736l0,576q0,14 -9,23t-23,9l-64,0q-14,0 -23,-9t-9,-23l0,-576q0,-14 9,-23t23,-9l64,0q14,0 23,9t9,23zm256,0l0,576q0,14 -9,23t-23,9l-64,0q-14,0 -23,-9t-9,-23l0,-576q0,-14 9,-23t23,-9l64,0q14,0 23,9t9,23zm256,0l0,576q0,14 -9,23t-23,9l-64,0q-14,0 -23,-9t-9,-23l0,-576q0,-14 9,-23t23,-9l64,0q14,0 23,9t9,23zm128,724l0,-948l-896,0l0,948q0,22 7,40.5t14.5,27t10.5,8.5l832,0q3,0 10.5,-8.5t14.5,-27t7,-40.5zm-672,-1076l448,0l-48,-117q-7,-9 -17,-11l-317,0q-10,2 -17,11l-49,117zm928,32l0,64q0,14 -9,23t-23,9l-96,0l0,948q0,83 -47,143.5t-113,60.5l-832,0q-66,0 -113,-58.5t-47,-141.5l0,-952l-96,0q-14,0 -23,-9t-9,-23l0,-64q0,-14 9,-23t23,-9l309,0l70,-167q15,-37 54,-63t79,-26l320,0q40,0 79,26t54,63l70,167l309,0q14,0 23,9t9,23z"/>
 </g>
</svg>